ISO-10303-21;
HEADER;
FILE_DESCRIPTION(('FreeCAD Model'),'2;1');
FILE_NAME('Open CASCADE Shape Model','2026-06-24T23:51:51',(''),(''),
  'Open CASCADE STEP processor 7.8','FreeCAD','Unknown');
FILE_SCHEMA(('AUTOMOTIVE_DESIGN { 1 0 10303 214 1 1 1 1 }'));
ENDSEC;
DATA;
#1 = APPLICATION_PROTOCOL_DEFINITION('international standard',
  'automotive_design',2000,#2);
#2 = APPLICATION_CONTEXT(
  'core data for automotive mechanical design processes');
#3 = SHAPE_DEFINITION_REPRESENTATION(#4,#10);
#4 = PRODUCT_DEFINITION_SHAPE('','',#5);
#5 = PRODUCT_DEFINITION('design','',#6,#9);
#6 = PRODUCT_DEFINITION_FORMATION('','',#7);
#7 = PRODUCT('Body001','Body001','',(#8));
#8 = PRODUCT_CONTEXT('',#2,'mechanical');
#9 = PRODUCT_DEFINITION_CONTEXT('part definition',#2,'design');
#10 = ADVANCED_BREP_SHAPE_REPRESENTATION('',(#11,#15),#833);
#11 = AXIS2_PLACEMENT_3D('',#12,#13,#14);
#12 = CARTESIAN_POINT('',(0.,0.,0.));
#13 = DIRECTION('',(0.,0.,1.));
#14 = DIRECTION('',(1.,0.,-0.));
#15 = MANIFOLD_SOLID_BREP('',#16);
#16 = CLOSED_SHELL('',(#17,#213,#238,#269,#293,#317,#341,#365,#390,#415,
    #439,#463,#487,#511,#528,#559,#583,#607,#624,#655,#679,#703,#720,
    #745,#770,#816));
#17 = ADVANCED_FACE('',(#18,#29,#129,#163,#197),#208,.T.);
#18 = FACE_BOUND('',#19,.T.);
#19 = EDGE_LOOP('',(#20));
#20 = ORIENTED_EDGE('',*,*,#21,.F.);
#21 = EDGE_CURVE('',#22,#22,#24,.T.);
#22 = VERTEX_POINT('',#23);
#23 = CARTESIAN_POINT('',(-9.554633808136,-6.736560630798,
    -5.729433441162));
#24 = CIRCLE('',#25,2.75);
#25 = AXIS2_PLACEMENT_3D('',#26,#27,#28);
#26 = CARTESIAN_POINT('',(-12.30463380813,-6.736560630798,
    -5.729433441162));
#27 = DIRECTION('',(0.,0.,-1.));
#28 = DIRECTION('',(1.,0.,0.));
#29 = FACE_BOUND('',#30,.T.);
#30 = EDGE_LOOP('',(#31,#41,#49,#57,#66,#74,#82,#90,#98,#106,#115,#123)
  );
#31 = ORIENTED_EDGE('',*,*,#32,.F.);
#32 = EDGE_CURVE('',#33,#35,#37,.T.);
#33 = VERTEX_POINT('',#34);
#34 = CARTESIAN_POINT('',(2.695366191864,-2.736560630798,-5.729433441162
    ));
#35 = VERTEX_POINT('',#36);
#36 = CARTESIAN_POINT('',(2.695366191864,38.263439369202,-5.729433441162
    ));
#37 = LINE('',#38,#39);
#38 = CARTESIAN_POINT('',(2.695366191864,-2.736560630798,-5.729433441162
    ));
#39 = VECTOR('',#40,1.);
#40 = DIRECTION('',(0.,1.,0.));
#41 = ORIENTED_EDGE('',*,*,#42,.F.);
#42 = EDGE_CURVE('',#43,#33,#45,.T.);
#43 = VERTEX_POINT('',#44);
#44 = CARTESIAN_POINT('',(-8.904633808136,-2.736560630798,
    -5.729433441162));
#45 = LINE('',#46,#47);
#46 = CARTESIAN_POINT('',(-27.30463380813,-2.736560630798,
    -5.729433441162));
#47 = VECTOR('',#48,1.);
#48 = DIRECTION('',(1.,0.,0.));
#49 = ORIENTED_EDGE('',*,*,#50,.F.);
#50 = EDGE_CURVE('',#51,#43,#53,.T.);
#51 = VERTEX_POINT('',#52);
#52 = CARTESIAN_POINT('',(-8.904633808136,-6.736560630798,
    -5.729433441162));
#53 = LINE('',#54,#55);
#54 = CARTESIAN_POINT('',(-8.904633808136,-6.736560630798,
    -5.729433441162));
#55 = VECTOR('',#56,1.);
#56 = DIRECTION('',(0.,1.,0.));
#57 = ORIENTED_EDGE('',*,*,#58,.T.);
#58 = EDGE_CURVE('',#51,#59,#61,.T.);
#59 = VERTEX_POINT('',#60);
#60 = CARTESIAN_POINT('',(-15.70463380813,-6.736560630798,
    -5.729433441162));
#61 = CIRCLE('',#62,3.4);
#62 = AXIS2_PLACEMENT_3D('',#63,#64,#65);
#63 = CARTESIAN_POINT('',(-12.30463380813,-6.736560630798,
    -5.729433441162));
#64 = DIRECTION('',(0.,0.,-1.));
#65 = DIRECTION('',(1.,0.,0.));
#66 = ORIENTED_EDGE('',*,*,#67,.T.);
#67 = EDGE_CURVE('',#59,#68,#70,.T.);
#68 = VERTEX_POINT('',#69);
#69 = CARTESIAN_POINT('',(-15.70463380813,-2.736560630798,
    -5.729433441162));
#70 = LINE('',#71,#72);
#71 = CARTESIAN_POINT('',(-15.70463380813,-6.736560630798,
    -5.729433441162));
#72 = VECTOR('',#73,1.);
#73 = DIRECTION('',(0.,1.,0.));
#74 = ORIENTED_EDGE('',*,*,#75,.F.);
#75 = EDGE_CURVE('',#76,#68,#78,.T.);
#76 = VERTEX_POINT('',#77);
#77 = CARTESIAN_POINT('',(-27.30463380813,-2.736560630798,
    -5.729433441162));
#78 = LINE('',#79,#80);
#79 = CARTESIAN_POINT('',(-27.30463380813,-2.736560630798,
    -5.729433441162));
#80 = VECTOR('',#81,1.);
#81 = DIRECTION('',(1.,0.,0.));
#82 = ORIENTED_EDGE('',*,*,#83,.F.);
#83 = EDGE_CURVE('',#84,#76,#86,.T.);
#84 = VERTEX_POINT('',#85);
#85 = CARTESIAN_POINT('',(-27.30463380813,38.263439369202,
    -5.729433441162));
#86 = LINE('',#87,#88);
#87 = CARTESIAN_POINT('',(-27.30463380813,38.263439369202,
    -5.729433441162));
#88 = VECTOR('',#89,1.);
#89 = DIRECTION('',(0.,-1.,0.));
#90 = ORIENTED_EDGE('',*,*,#91,.F.);
#91 = EDGE_CURVE('',#92,#84,#94,.T.);
#92 = VERTEX_POINT('',#93);
#93 = CARTESIAN_POINT('',(-15.70463380813,38.263439369202,
    -5.729433441162));
#94 = LINE('',#95,#96);
#95 = CARTESIAN_POINT('',(2.695366191864,38.263439369202,-5.729433441162
    ));
#96 = VECTOR('',#97,1.);
#97 = DIRECTION('',(-1.,0.,0.));
#98 = ORIENTED_EDGE('',*,*,#99,.F.);
#99 = EDGE_CURVE('',#100,#92,#102,.T.);
#100 = VERTEX_POINT('',#101);
#101 = CARTESIAN_POINT('',(-15.70463380813,42.263439369203,
    -5.729433441162));
#102 = LINE('',#103,#104);
#103 = CARTESIAN_POINT('',(-15.70463380813,42.263439369202,
    -5.729433441162));
#104 = VECTOR('',#105,1.);
#105 = DIRECTION('',(0.,-1.,0.));
#106 = ORIENTED_EDGE('',*,*,#107,.T.);
#107 = EDGE_CURVE('',#100,#108,#110,.T.);
#108 = VERTEX_POINT('',#109);
#109 = CARTESIAN_POINT('',(-8.904633808136,42.263439369202,
    -5.729433441162));
#110 = CIRCLE('',#111,3.4);
#111 = AXIS2_PLACEMENT_3D('',#112,#113,#114);
#112 = CARTESIAN_POINT('',(-12.30463380813,42.263439369202,
    -5.729433441162));
#113 = DIRECTION('',(0.,0.,-1.));
#114 = DIRECTION('',(1.,0.,0.));
#115 = ORIENTED_EDGE('',*,*,#116,.T.);
#116 = EDGE_CURVE('',#108,#117,#119,.T.);
#117 = VERTEX_POINT('',#118);
#118 = CARTESIAN_POINT('',(-8.904633808136,38.263439369202,
    -5.729433441162));
#119 = LINE('',#120,#121);
#120 = CARTESIAN_POINT('',(-8.904633808136,42.263439369202,
    -5.729433441162));
#121 = VECTOR('',#122,1.);
#122 = DIRECTION('',(0.,-1.,0.));
#123 = ORIENTED_EDGE('',*,*,#124,.F.);
#124 = EDGE_CURVE('',#35,#117,#125,.T.);
#125 = LINE('',#126,#127);
#126 = CARTESIAN_POINT('',(2.695366191864,38.263439369202,
    -5.729433441162));
#127 = VECTOR('',#128,1.);
#128 = DIRECTION('',(-1.,0.,0.));
#129 = FACE_BOUND('',#130,.T.);
#130 = EDGE_LOOP('',(#131,#141,#149,#157));
#131 = ORIENTED_EDGE('',*,*,#132,.F.);
#132 = EDGE_CURVE('',#133,#135,#137,.T.);
#133 = VERTEX_POINT('',#134);
#134 = CARTESIAN_POINT('',(-21.00463380813,-1.336560630798,
    -5.729433441162));
#135 = VERTEX_POINT('',#136);
#136 = CARTESIAN_POINT('',(-21.00463380813,6.263439369202,
    -5.729433441162));
#137 = LINE('',#138,#139);
#138 = CARTESIAN_POINT('',(-21.00463380813,-1.336560630798,
    -5.729433441162));
#139 = VECTOR('',#140,1.);
#140 = DIRECTION('',(0.,1.,0.));
#141 = ORIENTED_EDGE('',*,*,#142,.F.);
#142 = EDGE_CURVE('',#143,#133,#145,.T.);
#143 = VERTEX_POINT('',#144);
#144 = CARTESIAN_POINT('',(-12.60463380813,-1.336560630798,
    -5.729433441162));
#145 = LINE('',#146,#147);
#146 = CARTESIAN_POINT('',(-12.60463380813,-1.336560630798,
    -5.729433441162));
#147 = VECTOR('',#148,1.);
#148 = DIRECTION('',(-1.,0.,0.));
#149 = ORIENTED_EDGE('',*,*,#150,.F.);
#150 = EDGE_CURVE('',#151,#143,#153,.T.);
#151 = VERTEX_POINT('',#152);
#152 = CARTESIAN_POINT('',(-12.60463380813,6.263439369202,
    -5.729433441162));
#153 = LINE('',#154,#155);
#154 = CARTESIAN_POINT('',(-12.60463380813,6.263439369202,
    -5.729433441162));
#155 = VECTOR('',#156,1.);
#156 = DIRECTION('',(0.,-1.,0.));
#157 = ORIENTED_EDGE('',*,*,#158,.F.);
#158 = EDGE_CURVE('',#135,#151,#159,.T.);
#159 = LINE('',#160,#161);
#160 = CARTESIAN_POINT('',(-21.00463380813,6.263439369202,
    -5.729433441162));
#161 = VECTOR('',#162,1.);
#162 = DIRECTION('',(1.,0.,0.));
#163 = FACE_BOUND('',#164,.T.);
#164 = EDGE_LOOP('',(#165,#175,#183,#191));
#165 = ORIENTED_EDGE('',*,*,#166,.F.);
#166 = EDGE_CURVE('',#167,#169,#171,.T.);
#167 = VERTEX_POINT('',#168);
#168 = CARTESIAN_POINT('',(-22.70463380813,27.663439369202,
    -5.729433441162));
#169 = VERTEX_POINT('',#170);
#170 = CARTESIAN_POINT('',(-22.70463380813,35.663439369202,
    -5.729433441162));
#171 = LINE('',#172,#173);
#172 = CARTESIAN_POINT('',(-22.70463380813,27.663439369202,
    -5.729433441162));
#173 = VECTOR('',#174,1.);
#174 = DIRECTION('',(0.,1.,0.));
#175 = ORIENTED_EDGE('',*,*,#176,.F.);
#176 = EDGE_CURVE('',#177,#167,#179,.T.);
#177 = VERTEX_POINT('',#178);
#178 = CARTESIAN_POINT('',(-2.704633808136,27.663439369202,
    -5.729433441162));
#179 = LINE('',#180,#181);
#180 = CARTESIAN_POINT('',(-2.704633808136,27.663439369202,
    -5.729433441162));
#181 = VECTOR('',#182,1.);
#182 = DIRECTION('',(-1.,0.,0.));
#183 = ORIENTED_EDGE('',*,*,#184,.F.);
#184 = EDGE_CURVE('',#185,#177,#187,.T.);
#185 = VERTEX_POINT('',#186);
#186 = CARTESIAN_POINT('',(-2.704633808136,35.663439369202,
    -5.729433441162));
#187 = LINE('',#188,#189);
#188 = CARTESIAN_POINT('',(-2.704633808136,35.663439369202,
    -5.729433441162));
#189 = VECTOR('',#190,1.);
#190 = DIRECTION('',(0.,-1.,0.));
#191 = ORIENTED_EDGE('',*,*,#192,.F.);
#192 = EDGE_CURVE('',#169,#185,#193,.T.);
#193 = LINE('',#194,#195);
#194 = CARTESIAN_POINT('',(-22.70463380813,35.663439369202,
    -5.729433441162));
#195 = VECTOR('',#196,1.);
#196 = DIRECTION('',(1.,0.,0.));
#197 = FACE_BOUND('',#198,.T.);
#198 = EDGE_LOOP('',(#199));
#199 = ORIENTED_EDGE('',*,*,#200,.F.);
#200 = EDGE_CURVE('',#201,#201,#203,.T.);
#201 = VERTEX_POINT('',#202);
#202 = CARTESIAN_POINT('',(-9.554633808136,42.263439369202,
    -5.729433441162));
#203 = CIRCLE('',#204,2.75);
#204 = AXIS2_PLACEMENT_3D('',#205,#206,#207);
#205 = CARTESIAN_POINT('',(-12.30463380813,42.263439369202,
    -5.729433441162));
#206 = DIRECTION('',(0.,0.,-1.));
#207 = DIRECTION('',(1.,0.,0.));
#208 = PLANE('',#209);
#209 = AXIS2_PLACEMENT_3D('',#210,#211,#212);
#210 = CARTESIAN_POINT('',(-12.30463380813,17.763439369201,
    -5.729433441162));
#211 = DIRECTION('',(-0.,-0.,-1.));
#212 = DIRECTION('',(-1.,0.,0.));
#213 = ADVANCED_FACE('',(#214),#233,.F.);
#214 = FACE_BOUND('',#215,.T.);
#215 = EDGE_LOOP('',(#216,#224,#225,#226));
#216 = ORIENTED_EDGE('',*,*,#217,.F.);
#217 = EDGE_CURVE('',#22,#218,#220,.T.);
#218 = VERTEX_POINT('',#219);
#219 = CARTESIAN_POINT('',(-10.55463380813,-6.736560630798,
    -4.729433441162));
#220 = LINE('',#221,#222);
#221 = CARTESIAN_POINT('',(-10.55463380813,-6.736560630798,
    -4.729433441162));
#222 = VECTOR('',#223,1.);
#223 = DIRECTION('',(-0.707106781187,0.,0.707106781187));
#224 = ORIENTED_EDGE('',*,*,#21,.T.);
#225 = ORIENTED_EDGE('',*,*,#217,.T.);
#226 = ORIENTED_EDGE('',*,*,#227,.F.);
#227 = EDGE_CURVE('',#218,#218,#228,.T.);
#228 = CIRCLE('',#229,1.75);
#229 = AXIS2_PLACEMENT_3D('',#230,#231,#232);
#230 = CARTESIAN_POINT('',(-12.30463380813,-6.736560630798,
    -4.729433441162));
#231 = DIRECTION('',(0.,0.,-1.));
#232 = DIRECTION('',(1.,0.,0.));
#233 = CONICAL_SURFACE('',#234,1.75,0.785398163397);
#234 = AXIS2_PLACEMENT_3D('',#235,#236,#237);
#235 = CARTESIAN_POINT('',(-12.30463380813,-6.736560630798,
    -4.729433441162));
#236 = DIRECTION('',(-0.,-0.,-1.));
#237 = DIRECTION('',(1.,0.,0.));
#238 = ADVANCED_FACE('',(#239),#264,.F.);
#239 = FACE_BOUND('',#240,.F.);
#240 = EDGE_LOOP('',(#241,#249,#257,#263));
#241 = ORIENTED_EDGE('',*,*,#242,.T.);
#242 = EDGE_CURVE('',#33,#243,#245,.T.);
#243 = VERTEX_POINT('',#244);
#244 = CARTESIAN_POINT('',(2.695366191864,-2.736560630798,
    -3.729433441162));
#245 = LINE('',#246,#247);
#246 = CARTESIAN_POINT('',(2.695366191864,-2.736560630798,
    -5.729433441162));
#247 = VECTOR('',#248,1.);
#248 = DIRECTION('',(0.,0.,1.));
#249 = ORIENTED_EDGE('',*,*,#250,.T.);
#250 = EDGE_CURVE('',#243,#251,#253,.T.);
#251 = VERTEX_POINT('',#252);
#252 = CARTESIAN_POINT('',(2.695366191864,38.263439369202,
    -3.729433441162));
#253 = LINE('',#254,#255);
#254 = CARTESIAN_POINT('',(2.695366191864,-2.736560630798,
    -3.729433441162));
#255 = VECTOR('',#256,1.);
#256 = DIRECTION('',(0.,1.,0.));
#257 = ORIENTED_EDGE('',*,*,#258,.F.);
#258 = EDGE_CURVE('',#35,#251,#259,.T.);
#259 = LINE('',#260,#261);
#260 = CARTESIAN_POINT('',(2.695366191864,38.263439369202,
    -5.729433441162));
#261 = VECTOR('',#262,1.);
#262 = DIRECTION('',(0.,0.,1.));
#263 = ORIENTED_EDGE('',*,*,#32,.F.);
#264 = PLANE('',#265);
#265 = AXIS2_PLACEMENT_3D('',#266,#267,#268);
#266 = CARTESIAN_POINT('',(2.695366191864,-2.736560630798,
    -5.729433441162));
#267 = DIRECTION('',(-1.,0.,0.));
#268 = DIRECTION('',(0.,1.,0.));
#269 = ADVANCED_FACE('',(#270),#288,.F.);
#270 = FACE_BOUND('',#271,.F.);
#271 = EDGE_LOOP('',(#272,#273,#281,#287));
#272 = ORIENTED_EDGE('',*,*,#42,.F.);
#273 = ORIENTED_EDGE('',*,*,#274,.T.);
#274 = EDGE_CURVE('',#43,#275,#277,.T.);
#275 = VERTEX_POINT('',#276);
#276 = CARTESIAN_POINT('',(-8.904633808136,-2.736560630798,
    -3.729433441162));
#277 = LINE('',#278,#279);
#278 = CARTESIAN_POINT('',(-8.904633808136,-2.736560630798,
    -5.729433441162));
#279 = VECTOR('',#280,1.);
#280 = DIRECTION('',(0.,0.,1.));
#281 = ORIENTED_EDGE('',*,*,#282,.T.);
#282 = EDGE_CURVE('',#275,#243,#283,.T.);
#283 = LINE('',#284,#285);
#284 = CARTESIAN_POINT('',(-27.30463380813,-2.736560630798,
    -3.729433441162));
#285 = VECTOR('',#286,1.);
#286 = DIRECTION('',(1.,0.,0.));
#287 = ORIENTED_EDGE('',*,*,#242,.F.);
#288 = PLANE('',#289);
#289 = AXIS2_PLACEMENT_3D('',#290,#291,#292);
#290 = CARTESIAN_POINT('',(-27.30463380813,-2.736560630798,
    -5.729433441162));
#291 = DIRECTION('',(0.,1.,0.));
#292 = DIRECTION('',(1.,0.,0.));
#293 = ADVANCED_FACE('',(#294),#312,.F.);
#294 = FACE_BOUND('',#295,.F.);
#295 = EDGE_LOOP('',(#296,#297,#298,#306));
#296 = ORIENTED_EDGE('',*,*,#124,.F.);
#297 = ORIENTED_EDGE('',*,*,#258,.T.);
#298 = ORIENTED_EDGE('',*,*,#299,.T.);
#299 = EDGE_CURVE('',#251,#300,#302,.T.);
#300 = VERTEX_POINT('',#301);
#301 = CARTESIAN_POINT('',(-8.904633808136,38.263439369202,
    -3.729433441162));
#302 = LINE('',#303,#304);
#303 = CARTESIAN_POINT('',(2.695366191864,38.263439369202,
    -3.729433441162));
#304 = VECTOR('',#305,1.);
#305 = DIRECTION('',(-1.,0.,0.));
#306 = ORIENTED_EDGE('',*,*,#307,.F.);
#307 = EDGE_CURVE('',#117,#300,#308,.T.);
#308 = LINE('',#309,#310);
#309 = CARTESIAN_POINT('',(-8.904633808136,38.263439369202,
    -5.729433441162));
#310 = VECTOR('',#311,1.);
#311 = DIRECTION('',(0.,0.,1.));
#312 = PLANE('',#313);
#313 = AXIS2_PLACEMENT_3D('',#314,#315,#316);
#314 = CARTESIAN_POINT('',(2.695366191864,38.263439369202,
    -5.729433441162));
#315 = DIRECTION('',(0.,-1.,0.));
#316 = DIRECTION('',(-1.,0.,0.));
#317 = ADVANCED_FACE('',(#318),#336,.F.);
#318 = FACE_BOUND('',#319,.F.);
#319 = EDGE_LOOP('',(#320,#328,#334,#335));
#320 = ORIENTED_EDGE('',*,*,#321,.T.);
#321 = EDGE_CURVE('',#51,#322,#324,.T.);
#322 = VERTEX_POINT('',#323);
#323 = CARTESIAN_POINT('',(-8.904633808136,-6.736560630798,
    -3.729433441162));
#324 = LINE('',#325,#326);
#325 = CARTESIAN_POINT('',(-8.904633808136,-6.736560630798,
    -5.729433441162));
#326 = VECTOR('',#327,1.);
#327 = DIRECTION('',(0.,0.,1.));
#328 = ORIENTED_EDGE('',*,*,#329,.T.);
#329 = EDGE_CURVE('',#322,#275,#330,.T.);
#330 = LINE('',#331,#332);
#331 = CARTESIAN_POINT('',(-8.904633808136,-6.736560630798,
    -3.729433441162));
#332 = VECTOR('',#333,1.);
#333 = DIRECTION('',(0.,1.,0.));
#334 = ORIENTED_EDGE('',*,*,#274,.F.);
#335 = ORIENTED_EDGE('',*,*,#50,.F.);
#336 = PLANE('',#337);
#337 = AXIS2_PLACEMENT_3D('',#338,#339,#340);
#338 = CARTESIAN_POINT('',(-8.904633808136,-6.736560630798,
    -5.729433441162));
#339 = DIRECTION('',(-1.,0.,0.));
#340 = DIRECTION('',(0.,1.,0.));
#341 = ADVANCED_FACE('',(#342),#360,.T.);
#342 = FACE_BOUND('',#343,.T.);
#343 = EDGE_LOOP('',(#344,#352,#358,#359));
#344 = ORIENTED_EDGE('',*,*,#345,.T.);
#345 = EDGE_CURVE('',#108,#346,#348,.T.);
#346 = VERTEX_POINT('',#347);
#347 = CARTESIAN_POINT('',(-8.904633808136,42.263439369202,
    -3.729433441162));
#348 = LINE('',#349,#350);
#349 = CARTESIAN_POINT('',(-8.904633808136,42.263439369202,
    -5.729433441162));
#350 = VECTOR('',#351,1.);
#351 = DIRECTION('',(0.,0.,1.));
#352 = ORIENTED_EDGE('',*,*,#353,.T.);
#353 = EDGE_CURVE('',#346,#300,#354,.T.);
#354 = LINE('',#355,#356);
#355 = CARTESIAN_POINT('',(-8.904633808136,42.263439369202,
    -3.729433441162));
#356 = VECTOR('',#357,1.);
#357 = DIRECTION('',(0.,-1.,0.));
#358 = ORIENTED_EDGE('',*,*,#307,.F.);
#359 = ORIENTED_EDGE('',*,*,#116,.F.);
#360 = PLANE('',#361);
#361 = AXIS2_PLACEMENT_3D('',#362,#363,#364);
#362 = CARTESIAN_POINT('',(-8.904633808136,42.263439369202,
    -5.729433441162));
#363 = DIRECTION('',(1.,0.,0.));
#364 = DIRECTION('',(0.,-1.,0.));
#365 = ADVANCED_FACE('',(#366),#385,.T.);
#366 = FACE_BOUND('',#367,.T.);
#367 = EDGE_LOOP('',(#368,#369,#378,#384));
#368 = ORIENTED_EDGE('',*,*,#321,.T.);
#369 = ORIENTED_EDGE('',*,*,#370,.T.);
#370 = EDGE_CURVE('',#322,#371,#373,.T.);
#371 = VERTEX_POINT('',#372);
#372 = CARTESIAN_POINT('',(-15.70463380813,-6.736560630798,
    -3.729433441162));
#373 = CIRCLE('',#374,3.4);
#374 = AXIS2_PLACEMENT_3D('',#375,#376,#377);
#375 = CARTESIAN_POINT('',(-12.30463380813,-6.736560630798,
    -3.729433441162));
#376 = DIRECTION('',(0.,0.,-1.));
#377 = DIRECTION('',(1.,0.,0.));
#378 = ORIENTED_EDGE('',*,*,#379,.F.);
#379 = EDGE_CURVE('',#59,#371,#380,.T.);
#380 = LINE('',#381,#382);
#381 = CARTESIAN_POINT('',(-15.70463380813,-6.736560630798,
    -5.729433441162));
#382 = VECTOR('',#383,1.);
#383 = DIRECTION('',(0.,0.,1.));
#384 = ORIENTED_EDGE('',*,*,#58,.F.);
#385 = CYLINDRICAL_SURFACE('',#386,3.4);
#386 = AXIS2_PLACEMENT_3D('',#387,#388,#389);
#387 = CARTESIAN_POINT('',(-12.30463380813,-6.736560630798,
    -5.729433441162));
#388 = DIRECTION('',(0.,0.,-1.));
#389 = DIRECTION('',(1.,0.,0.));
#390 = ADVANCED_FACE('',(#391),#410,.T.);
#391 = FACE_BOUND('',#392,.T.);
#392 = EDGE_LOOP('',(#393,#401,#408,#409));
#393 = ORIENTED_EDGE('',*,*,#394,.T.);
#394 = EDGE_CURVE('',#100,#395,#397,.T.);
#395 = VERTEX_POINT('',#396);
#396 = CARTESIAN_POINT('',(-15.70463380813,42.263439369203,
    -3.729433441162));
#397 = LINE('',#398,#399);
#398 = CARTESIAN_POINT('',(-15.70463380813,42.263439369203,
    -5.729433441162));
#399 = VECTOR('',#400,1.);
#400 = DIRECTION('',(0.,0.,1.));
#401 = ORIENTED_EDGE('',*,*,#402,.T.);
#402 = EDGE_CURVE('',#395,#346,#403,.T.);
#403 = CIRCLE('',#404,3.4);
#404 = AXIS2_PLACEMENT_3D('',#405,#406,#407);
#405 = CARTESIAN_POINT('',(-12.30463380813,42.263439369202,
    -3.729433441162));
#406 = DIRECTION('',(0.,0.,-1.));
#407 = DIRECTION('',(1.,0.,0.));
#408 = ORIENTED_EDGE('',*,*,#345,.F.);
#409 = ORIENTED_EDGE('',*,*,#107,.F.);
#410 = CYLINDRICAL_SURFACE('',#411,3.4);
#411 = AXIS2_PLACEMENT_3D('',#412,#413,#414);
#412 = CARTESIAN_POINT('',(-12.30463380813,42.263439369202,
    -5.729433441162));
#413 = DIRECTION('',(0.,0.,-1.));
#414 = DIRECTION('',(1.,0.,0.));
#415 = ADVANCED_FACE('',(#416),#434,.T.);
#416 = FACE_BOUND('',#417,.T.);
#417 = EDGE_LOOP('',(#418,#419,#427,#433));
#418 = ORIENTED_EDGE('',*,*,#379,.T.);
#419 = ORIENTED_EDGE('',*,*,#420,.T.);
#420 = EDGE_CURVE('',#371,#421,#423,.T.);
#421 = VERTEX_POINT('',#422);
#422 = CARTESIAN_POINT('',(-15.70463380813,-2.736560630798,
    -3.729433441162));
#423 = LINE('',#424,#425);
#424 = CARTESIAN_POINT('',(-15.70463380813,-6.736560630798,
    -3.729433441162));
#425 = VECTOR('',#426,1.);
#426 = DIRECTION('',(0.,1.,0.));
#427 = ORIENTED_EDGE('',*,*,#428,.F.);
#428 = EDGE_CURVE('',#68,#421,#429,.T.);
#429 = LINE('',#430,#431);
#430 = CARTESIAN_POINT('',(-15.70463380813,-2.736560630798,
    -5.729433441162));
#431 = VECTOR('',#432,1.);
#432 = DIRECTION('',(0.,0.,1.));
#433 = ORIENTED_EDGE('',*,*,#67,.F.);
#434 = PLANE('',#435);
#435 = AXIS2_PLACEMENT_3D('',#436,#437,#438);
#436 = CARTESIAN_POINT('',(-15.70463380813,-6.736560630798,
    -5.729433441162));
#437 = DIRECTION('',(-1.,0.,0.));
#438 = DIRECTION('',(0.,1.,0.));
#439 = ADVANCED_FACE('',(#440),#458,.F.);
#440 = FACE_BOUND('',#441,.F.);
#441 = EDGE_LOOP('',(#442,#443,#451,#457));
#442 = ORIENTED_EDGE('',*,*,#394,.T.);
#443 = ORIENTED_EDGE('',*,*,#444,.T.);
#444 = EDGE_CURVE('',#395,#445,#447,.T.);
#445 = VERTEX_POINT('',#446);
#446 = CARTESIAN_POINT('',(-15.70463380813,38.263439369202,
    -3.729433441162));
#447 = LINE('',#448,#449);
#448 = CARTESIAN_POINT('',(-15.70463380813,42.263439369202,
    -3.729433441162));
#449 = VECTOR('',#450,1.);
#450 = DIRECTION('',(0.,-1.,0.));
#451 = ORIENTED_EDGE('',*,*,#452,.F.);
#452 = EDGE_CURVE('',#92,#445,#453,.T.);
#453 = LINE('',#454,#455);
#454 = CARTESIAN_POINT('',(-15.70463380813,38.263439369202,
    -5.729433441162));
#455 = VECTOR('',#456,1.);
#456 = DIRECTION('',(0.,0.,1.));
#457 = ORIENTED_EDGE('',*,*,#99,.F.);
#458 = PLANE('',#459);
#459 = AXIS2_PLACEMENT_3D('',#460,#461,#462);
#460 = CARTESIAN_POINT('',(-15.70463380813,42.263439369202,
    -5.729433441162));
#461 = DIRECTION('',(1.,0.,0.));
#462 = DIRECTION('',(0.,-1.,0.));
#463 = ADVANCED_FACE('',(#464),#482,.F.);
#464 = FACE_BOUND('',#465,.F.);
#465 = EDGE_LOOP('',(#466,#467,#475,#481));
#466 = ORIENTED_EDGE('',*,*,#75,.F.);
#467 = ORIENTED_EDGE('',*,*,#468,.T.);
#468 = EDGE_CURVE('',#76,#469,#471,.T.);
#469 = VERTEX_POINT('',#470);
#470 = CARTESIAN_POINT('',(-27.30463380813,-2.736560630798,
    -3.729433441162));
#471 = LINE('',#472,#473);
#472 = CARTESIAN_POINT('',(-27.30463380813,-2.736560630798,
    -5.729433441162));
#473 = VECTOR('',#474,1.);
#474 = DIRECTION('',(0.,0.,1.));
#475 = ORIENTED_EDGE('',*,*,#476,.T.);
#476 = EDGE_CURVE('',#469,#421,#477,.T.);
#477 = LINE('',#478,#479);
#478 = CARTESIAN_POINT('',(-27.30463380813,-2.736560630798,
    -3.729433441162));
#479 = VECTOR('',#480,1.);
#480 = DIRECTION('',(1.,0.,0.));
#481 = ORIENTED_EDGE('',*,*,#428,.F.);
#482 = PLANE('',#483);
#483 = AXIS2_PLACEMENT_3D('',#484,#485,#486);
#484 = CARTESIAN_POINT('',(-27.30463380813,-2.736560630798,
    -5.729433441162));
#485 = DIRECTION('',(0.,1.,0.));
#486 = DIRECTION('',(1.,0.,0.));
#487 = ADVANCED_FACE('',(#488),#506,.F.);
#488 = FACE_BOUND('',#489,.F.);
#489 = EDGE_LOOP('',(#490,#491,#492,#500));
#490 = ORIENTED_EDGE('',*,*,#91,.F.);
#491 = ORIENTED_EDGE('',*,*,#452,.T.);
#492 = ORIENTED_EDGE('',*,*,#493,.T.);
#493 = EDGE_CURVE('',#445,#494,#496,.T.);
#494 = VERTEX_POINT('',#495);
#495 = CARTESIAN_POINT('',(-27.30463380813,38.263439369202,
    -3.729433441162));
#496 = LINE('',#497,#498);
#497 = CARTESIAN_POINT('',(2.695366191864,38.263439369202,
    -3.729433441162));
#498 = VECTOR('',#499,1.);
#499 = DIRECTION('',(-1.,0.,0.));
#500 = ORIENTED_EDGE('',*,*,#501,.F.);
#501 = EDGE_CURVE('',#84,#494,#502,.T.);
#502 = LINE('',#503,#504);
#503 = CARTESIAN_POINT('',(-27.30463380813,38.263439369202,
    -5.729433441162));
#504 = VECTOR('',#505,1.);
#505 = DIRECTION('',(0.,0.,1.));
#506 = PLANE('',#507);
#507 = AXIS2_PLACEMENT_3D('',#508,#509,#510);
#508 = CARTESIAN_POINT('',(2.695366191864,38.263439369202,
    -5.729433441162));
#509 = DIRECTION('',(0.,-1.,0.));
#510 = DIRECTION('',(-1.,0.,0.));
#511 = ADVANCED_FACE('',(#512),#523,.F.);
#512 = FACE_BOUND('',#513,.F.);
#513 = EDGE_LOOP('',(#514,#515,#521,#522));
#514 = ORIENTED_EDGE('',*,*,#501,.T.);
#515 = ORIENTED_EDGE('',*,*,#516,.T.);
#516 = EDGE_CURVE('',#494,#469,#517,.T.);
#517 = LINE('',#518,#519);
#518 = CARTESIAN_POINT('',(-27.30463380813,38.263439369202,
    -3.729433441162));
#519 = VECTOR('',#520,1.);
#520 = DIRECTION('',(0.,-1.,0.));
#521 = ORIENTED_EDGE('',*,*,#468,.F.);
#522 = ORIENTED_EDGE('',*,*,#83,.F.);
#523 = PLANE('',#524);
#524 = AXIS2_PLACEMENT_3D('',#525,#526,#527);
#525 = CARTESIAN_POINT('',(-27.30463380813,38.263439369202,
    -5.729433441162));
#526 = DIRECTION('',(1.,0.,0.));
#527 = DIRECTION('',(0.,-1.,0.));
#528 = ADVANCED_FACE('',(#529),#554,.F.);
#529 = FACE_BOUND('',#530,.F.);
#530 = EDGE_LOOP('',(#531,#532,#540,#548));
#531 = ORIENTED_EDGE('',*,*,#132,.F.);
#532 = ORIENTED_EDGE('',*,*,#533,.T.);
#533 = EDGE_CURVE('',#133,#534,#536,.T.);
#534 = VERTEX_POINT('',#535);
#535 = CARTESIAN_POINT('',(-21.00463380813,-1.336560630798,
    -3.729433441162));
#536 = LINE('',#537,#538);
#537 = CARTESIAN_POINT('',(-21.00463380813,-1.336560630798,
    -5.729433441162));
#538 = VECTOR('',#539,1.);
#539 = DIRECTION('',(0.,0.,1.));
#540 = ORIENTED_EDGE('',*,*,#541,.F.);
#541 = EDGE_CURVE('',#542,#534,#544,.T.);
#542 = VERTEX_POINT('',#543);
#543 = CARTESIAN_POINT('',(-21.00463380813,6.263439369202,
    -3.729433441162));
#544 = LINE('',#545,#546);
#545 = CARTESIAN_POINT('',(-21.00463380813,8.213439369201,
    -3.729433441162));
#546 = VECTOR('',#547,1.);
#547 = DIRECTION('',(0.,-1.,0.));
#548 = ORIENTED_EDGE('',*,*,#549,.F.);
#549 = EDGE_CURVE('',#135,#542,#550,.T.);
#550 = LINE('',#551,#552);
#551 = CARTESIAN_POINT('',(-21.00463380813,6.263439369202,
    -5.729433441162));
#552 = VECTOR('',#553,1.);
#553 = DIRECTION('',(0.,0.,1.));
#554 = PLANE('',#555);
#555 = AXIS2_PLACEMENT_3D('',#556,#557,#558);
#556 = CARTESIAN_POINT('',(-21.00463380813,-1.336560630798,
    -5.729433441162));
#557 = DIRECTION('',(-1.,0.,0.));
#558 = DIRECTION('',(0.,1.,0.));
#559 = ADVANCED_FACE('',(#560),#578,.F.);
#560 = FACE_BOUND('',#561,.F.);
#561 = EDGE_LOOP('',(#562,#563,#564,#572));
#562 = ORIENTED_EDGE('',*,*,#158,.F.);
#563 = ORIENTED_EDGE('',*,*,#549,.T.);
#564 = ORIENTED_EDGE('',*,*,#565,.F.);
#565 = EDGE_CURVE('',#566,#542,#568,.T.);
#566 = VERTEX_POINT('',#567);
#567 = CARTESIAN_POINT('',(-12.60463380813,6.263439369202,
    -3.729433441162));
#568 = LINE('',#569,#570);
#569 = CARTESIAN_POINT('',(-16.65463380813,6.263439369202,
    -3.729433441162));
#570 = VECTOR('',#571,1.);
#571 = DIRECTION('',(-1.,0.,0.));
#572 = ORIENTED_EDGE('',*,*,#573,.F.);
#573 = EDGE_CURVE('',#151,#566,#574,.T.);
#574 = LINE('',#575,#576);
#575 = CARTESIAN_POINT('',(-12.60463380813,6.263439369202,
    -5.729433441162));
#576 = VECTOR('',#577,1.);
#577 = DIRECTION('',(0.,0.,1.));
#578 = PLANE('',#579);
#579 = AXIS2_PLACEMENT_3D('',#580,#581,#582);
#580 = CARTESIAN_POINT('',(-21.00463380813,6.263439369202,
    -5.729433441162));
#581 = DIRECTION('',(0.,1.,0.));
#582 = DIRECTION('',(1.,0.,0.));
#583 = ADVANCED_FACE('',(#584),#602,.F.);
#584 = FACE_BOUND('',#585,.F.);
#585 = EDGE_LOOP('',(#586,#587,#588,#596));
#586 = ORIENTED_EDGE('',*,*,#150,.F.);
#587 = ORIENTED_EDGE('',*,*,#573,.T.);
#588 = ORIENTED_EDGE('',*,*,#589,.F.);
#589 = EDGE_CURVE('',#590,#566,#592,.T.);
#590 = VERTEX_POINT('',#591);
#591 = CARTESIAN_POINT('',(-12.60463380813,-1.336560630798,
    -3.729433441162));
#592 = LINE('',#593,#594);
#593 = CARTESIAN_POINT('',(-12.60463380813,12.013439369201,
    -3.729433441162));
#594 = VECTOR('',#595,1.);
#595 = DIRECTION('',(0.,1.,0.));
#596 = ORIENTED_EDGE('',*,*,#597,.F.);
#597 = EDGE_CURVE('',#143,#590,#598,.T.);
#598 = LINE('',#599,#600);
#599 = CARTESIAN_POINT('',(-12.60463380813,-1.336560630798,
    -5.729433441162));
#600 = VECTOR('',#601,1.);
#601 = DIRECTION('',(0.,0.,1.));
#602 = PLANE('',#603);
#603 = AXIS2_PLACEMENT_3D('',#604,#605,#606);
#604 = CARTESIAN_POINT('',(-12.60463380813,6.263439369202,
    -5.729433441162));
#605 = DIRECTION('',(1.,0.,0.));
#606 = DIRECTION('',(0.,-1.,0.));
#607 = ADVANCED_FACE('',(#608),#619,.F.);
#608 = FACE_BOUND('',#609,.F.);
#609 = EDGE_LOOP('',(#610,#611,#612,#618));
#610 = ORIENTED_EDGE('',*,*,#142,.F.);
#611 = ORIENTED_EDGE('',*,*,#597,.T.);
#612 = ORIENTED_EDGE('',*,*,#613,.F.);
#613 = EDGE_CURVE('',#534,#590,#614,.T.);
#614 = LINE('',#615,#616);
#615 = CARTESIAN_POINT('',(-12.45463380813,-1.336560630798,
    -3.729433441162));
#616 = VECTOR('',#617,1.);
#617 = DIRECTION('',(1.,0.,0.));
#618 = ORIENTED_EDGE('',*,*,#533,.F.);
#619 = PLANE('',#620);
#620 = AXIS2_PLACEMENT_3D('',#621,#622,#623);
#621 = CARTESIAN_POINT('',(-12.60463380813,-1.336560630798,
    -5.729433441162));
#622 = DIRECTION('',(0.,-1.,0.));
#623 = DIRECTION('',(-1.,0.,0.));
#624 = ADVANCED_FACE('',(#625),#650,.F.);
#625 = FACE_BOUND('',#626,.F.);
#626 = EDGE_LOOP('',(#627,#628,#636,#644));
#627 = ORIENTED_EDGE('',*,*,#166,.F.);
#628 = ORIENTED_EDGE('',*,*,#629,.T.);
#629 = EDGE_CURVE('',#167,#630,#632,.T.);
#630 = VERTEX_POINT('',#631);
#631 = CARTESIAN_POINT('',(-22.70463380813,27.663439369202,
    -3.729433441162));
#632 = LINE('',#633,#634);
#633 = CARTESIAN_POINT('',(-22.70463380813,27.663439369202,
    -5.729433441162));
#634 = VECTOR('',#635,1.);
#635 = DIRECTION('',(0.,0.,1.));
#636 = ORIENTED_EDGE('',*,*,#637,.F.);
#637 = EDGE_CURVE('',#638,#630,#640,.T.);
#638 = VERTEX_POINT('',#639);
#639 = CARTESIAN_POINT('',(-22.70463380813,35.663439369202,
    -3.729433441162));
#640 = LINE('',#641,#642);
#641 = CARTESIAN_POINT('',(-22.70463380813,22.713439369201,
    -3.729433441162));
#642 = VECTOR('',#643,1.);
#643 = DIRECTION('',(0.,-1.,0.));
#644 = ORIENTED_EDGE('',*,*,#645,.F.);
#645 = EDGE_CURVE('',#169,#638,#646,.T.);
#646 = LINE('',#647,#648);
#647 = CARTESIAN_POINT('',(-22.70463380813,35.663439369202,
    -5.729433441162));
#648 = VECTOR('',#649,1.);
#649 = DIRECTION('',(0.,0.,1.));
#650 = PLANE('',#651);
#651 = AXIS2_PLACEMENT_3D('',#652,#653,#654);
#652 = CARTESIAN_POINT('',(-22.70463380813,27.663439369202,
    -5.729433441162));
#653 = DIRECTION('',(-1.,0.,0.));
#654 = DIRECTION('',(0.,1.,0.));
#655 = ADVANCED_FACE('',(#656),#674,.F.);
#656 = FACE_BOUND('',#657,.F.);
#657 = EDGE_LOOP('',(#658,#659,#660,#668));
#658 = ORIENTED_EDGE('',*,*,#192,.F.);
#659 = ORIENTED_EDGE('',*,*,#645,.T.);
#660 = ORIENTED_EDGE('',*,*,#661,.F.);
#661 = EDGE_CURVE('',#662,#638,#664,.T.);
#662 = VERTEX_POINT('',#663);
#663 = CARTESIAN_POINT('',(-2.704633808136,35.663439369202,
    -3.729433441162));
#664 = LINE('',#665,#666);
#665 = CARTESIAN_POINT('',(-17.50463380813,35.663439369202,
    -3.729433441162));
#666 = VECTOR('',#667,1.);
#667 = DIRECTION('',(-1.,0.,0.));
#668 = ORIENTED_EDGE('',*,*,#669,.F.);
#669 = EDGE_CURVE('',#185,#662,#670,.T.);
#670 = LINE('',#671,#672);
#671 = CARTESIAN_POINT('',(-2.704633808136,35.663439369202,
    -5.729433441162));
#672 = VECTOR('',#673,1.);
#673 = DIRECTION('',(0.,0.,1.));
#674 = PLANE('',#675);
#675 = AXIS2_PLACEMENT_3D('',#676,#677,#678);
#676 = CARTESIAN_POINT('',(-22.70463380813,35.663439369202,
    -5.729433441162));
#677 = DIRECTION('',(0.,1.,0.));
#678 = DIRECTION('',(1.,0.,0.));
#679 = ADVANCED_FACE('',(#680),#698,.F.);
#680 = FACE_BOUND('',#681,.F.);
#681 = EDGE_LOOP('',(#682,#683,#684,#692));
#682 = ORIENTED_EDGE('',*,*,#184,.F.);
#683 = ORIENTED_EDGE('',*,*,#669,.T.);
#684 = ORIENTED_EDGE('',*,*,#685,.F.);
#685 = EDGE_CURVE('',#686,#662,#688,.T.);
#686 = VERTEX_POINT('',#687);
#687 = CARTESIAN_POINT('',(-2.704633808136,27.663439369202,
    -3.729433441162));
#688 = LINE('',#689,#690);
#689 = CARTESIAN_POINT('',(-2.704633808136,26.713439369201,
    -3.729433441162));
#690 = VECTOR('',#691,1.);
#691 = DIRECTION('',(0.,1.,0.));
#692 = ORIENTED_EDGE('',*,*,#693,.F.);
#693 = EDGE_CURVE('',#177,#686,#694,.T.);
#694 = LINE('',#695,#696);
#695 = CARTESIAN_POINT('',(-2.704633808136,27.663439369202,
    -5.729433441162));
#696 = VECTOR('',#697,1.);
#697 = DIRECTION('',(0.,0.,1.));
#698 = PLANE('',#699);
#699 = AXIS2_PLACEMENT_3D('',#700,#701,#702);
#700 = CARTESIAN_POINT('',(-2.704633808136,35.663439369202,
    -5.729433441162));
#701 = DIRECTION('',(1.,0.,0.));
#702 = DIRECTION('',(0.,-1.,0.));
#703 = ADVANCED_FACE('',(#704),#715,.F.);
#704 = FACE_BOUND('',#705,.F.);
#705 = EDGE_LOOP('',(#706,#707,#708,#714));
#706 = ORIENTED_EDGE('',*,*,#176,.F.);
#707 = ORIENTED_EDGE('',*,*,#693,.T.);
#708 = ORIENTED_EDGE('',*,*,#709,.F.);
#709 = EDGE_CURVE('',#630,#686,#710,.T.);
#710 = LINE('',#711,#712);
#711 = CARTESIAN_POINT('',(-7.504633808136,27.663439369202,
    -3.729433441162));
#712 = VECTOR('',#713,1.);
#713 = DIRECTION('',(1.,0.,0.));
#714 = ORIENTED_EDGE('',*,*,#629,.F.);
#715 = PLANE('',#716);
#716 = AXIS2_PLACEMENT_3D('',#717,#718,#719);
#717 = CARTESIAN_POINT('',(-2.704633808136,27.663439369202,
    -5.729433441162));
#718 = DIRECTION('',(0.,-1.,0.));
#719 = DIRECTION('',(-1.,0.,0.));
#720 = ADVANCED_FACE('',(#721),#740,.F.);
#721 = FACE_BOUND('',#722,.T.);
#722 = EDGE_LOOP('',(#723,#731,#732,#733));
#723 = ORIENTED_EDGE('',*,*,#724,.F.);
#724 = EDGE_CURVE('',#201,#725,#727,.T.);
#725 = VERTEX_POINT('',#726);
#726 = CARTESIAN_POINT('',(-10.55463380813,42.263439369202,
    -4.729433441162));
#727 = LINE('',#728,#729);
#728 = CARTESIAN_POINT('',(-10.55463380813,42.263439369202,
    -4.729433441162));
#729 = VECTOR('',#730,1.);
#730 = DIRECTION('',(-0.707106781187,0.,0.707106781187));
#731 = ORIENTED_EDGE('',*,*,#200,.T.);
#732 = ORIENTED_EDGE('',*,*,#724,.T.);
#733 = ORIENTED_EDGE('',*,*,#734,.F.);
#734 = EDGE_CURVE('',#725,#725,#735,.T.);
#735 = CIRCLE('',#736,1.75);
#736 = AXIS2_PLACEMENT_3D('',#737,#738,#739);
#737 = CARTESIAN_POINT('',(-12.30463380813,42.263439369202,
    -4.729433441162));
#738 = DIRECTION('',(0.,0.,-1.));
#739 = DIRECTION('',(1.,0.,0.));
#740 = CONICAL_SURFACE('',#741,1.75,0.785398163397);
#741 = AXIS2_PLACEMENT_3D('',#742,#743,#744);
#742 = CARTESIAN_POINT('',(-12.30463380813,42.263439369202,
    -4.729433441162));
#743 = DIRECTION('',(-0.,-0.,-1.));
#744 = DIRECTION('',(1.,0.,0.));
#745 = ADVANCED_FACE('',(#746),#765,.F.);
#746 = FACE_BOUND('',#747,.F.);
#747 = EDGE_LOOP('',(#748,#756,#763,#764));
#748 = ORIENTED_EDGE('',*,*,#749,.T.);
#749 = EDGE_CURVE('',#218,#750,#752,.T.);
#750 = VERTEX_POINT('',#751);
#751 = CARTESIAN_POINT('',(-10.55463380813,-6.736560630798,
    -3.729433441162));
#752 = LINE('',#753,#754);
#753 = CARTESIAN_POINT('',(-10.55463380813,-6.736560630798,
    -5.729433441162));
#754 = VECTOR('',#755,1.);
#755 = DIRECTION('',(0.,0.,1.));
#756 = ORIENTED_EDGE('',*,*,#757,.T.);
#757 = EDGE_CURVE('',#750,#750,#758,.T.);
#758 = CIRCLE('',#759,1.75);
#759 = AXIS2_PLACEMENT_3D('',#760,#761,#762);
#760 = CARTESIAN_POINT('',(-12.30463380813,-6.736560630798,
    -3.729433441162));
#761 = DIRECTION('',(0.,0.,-1.));
#762 = DIRECTION('',(1.,0.,0.));
#763 = ORIENTED_EDGE('',*,*,#749,.F.);
#764 = ORIENTED_EDGE('',*,*,#227,.F.);
#765 = CYLINDRICAL_SURFACE('',#766,1.75);
#766 = AXIS2_PLACEMENT_3D('',#767,#768,#769);
#767 = CARTESIAN_POINT('',(-12.30463380813,-6.736560630798,
    -5.729433441162));
#768 = DIRECTION('',(0.,0.,-1.));
#769 = DIRECTION('',(1.,0.,0.));
#770 = ADVANCED_FACE('',(#771,#785,#791,#794,#800),#811,.T.);
#771 = FACE_BOUND('',#772,.T.);
#772 = EDGE_LOOP('',(#773,#774,#775,#776,#777,#778,#779,#780,#781,#782,
    #783,#784));
#773 = ORIENTED_EDGE('',*,*,#250,.T.);
#774 = ORIENTED_EDGE('',*,*,#299,.T.);
#775 = ORIENTED_EDGE('',*,*,#353,.F.);
#776 = ORIENTED_EDGE('',*,*,#402,.F.);
#777 = ORIENTED_EDGE('',*,*,#444,.T.);
#778 = ORIENTED_EDGE('',*,*,#493,.T.);
#779 = ORIENTED_EDGE('',*,*,#516,.T.);
#780 = ORIENTED_EDGE('',*,*,#476,.T.);
#781 = ORIENTED_EDGE('',*,*,#420,.F.);
#782 = ORIENTED_EDGE('',*,*,#370,.F.);
#783 = ORIENTED_EDGE('',*,*,#329,.T.);
#784 = ORIENTED_EDGE('',*,*,#282,.T.);
#785 = FACE_BOUND('',#786,.T.);
#786 = EDGE_LOOP('',(#787,#788,#789,#790));
#787 = ORIENTED_EDGE('',*,*,#541,.F.);
#788 = ORIENTED_EDGE('',*,*,#565,.F.);
#789 = ORIENTED_EDGE('',*,*,#589,.F.);
#790 = ORIENTED_EDGE('',*,*,#613,.F.);
#791 = FACE_BOUND('',#792,.T.);
#792 = EDGE_LOOP('',(#793));
#793 = ORIENTED_EDGE('',*,*,#757,.T.);
#794 = FACE_BOUND('',#795,.T.);
#795 = EDGE_LOOP('',(#796,#797,#798,#799));
#796 = ORIENTED_EDGE('',*,*,#637,.F.);
#797 = ORIENTED_EDGE('',*,*,#661,.F.);
#798 = ORIENTED_EDGE('',*,*,#685,.F.);
#799 = ORIENTED_EDGE('',*,*,#709,.F.);
#800 = FACE_BOUND('',#801,.T.);
#801 = EDGE_LOOP('',(#802));
#802 = ORIENTED_EDGE('',*,*,#803,.T.);
#803 = EDGE_CURVE('',#804,#804,#806,.T.);
#804 = VERTEX_POINT('',#805);
#805 = CARTESIAN_POINT('',(-10.55463380813,42.263439369202,
    -3.729433441162));
#806 = CIRCLE('',#807,1.75);
#807 = AXIS2_PLACEMENT_3D('',#808,#809,#810);
#808 = CARTESIAN_POINT('',(-12.30463380813,42.263439369202,
    -3.729433441162));
#809 = DIRECTION('',(0.,0.,-1.));
#810 = DIRECTION('',(1.,0.,0.));
#811 = PLANE('',#812);
#812 = AXIS2_PLACEMENT_3D('',#813,#814,#815);
#813 = CARTESIAN_POINT('',(-12.30463380813,17.763439369201,
    -3.729433441162));
#814 = DIRECTION('',(0.,0.,1.));
#815 = DIRECTION('',(1.,0.,0.));
#816 = ADVANCED_FACE('',(#817),#828,.F.);
#817 = FACE_BOUND('',#818,.F.);
#818 = EDGE_LOOP('',(#819,#825,#826,#827));
#819 = ORIENTED_EDGE('',*,*,#820,.T.);
#820 = EDGE_CURVE('',#725,#804,#821,.T.);
#821 = LINE('',#822,#823);
#822 = CARTESIAN_POINT('',(-10.55463380813,42.263439369202,
    -5.729433441162));
#823 = VECTOR('',#824,1.);
#824 = DIRECTION('',(0.,0.,1.));
#825 = ORIENTED_EDGE('',*,*,#803,.T.);
#826 = ORIENTED_EDGE('',*,*,#820,.F.);
#827 = ORIENTED_EDGE('',*,*,#734,.F.);
#828 = CYLINDRICAL_SURFACE('',#829,1.75);
#829 = AXIS2_PLACEMENT_3D('',#830,#831,#832);
#830 = CARTESIAN_POINT('',(-12.30463380813,42.263439369202,
    -5.729433441162));
#831 = DIRECTION('',(0.,0.,-1.));
#832 = DIRECTION('',(1.,0.,0.));
#833 = ( GEOMETRIC_REPRESENTATION_CONTEXT(3) 
GLOBAL_UNCERTAINTY_ASSIGNED_CONTEXT((#837)) GLOBAL_UNIT_ASSIGNED_CONTEXT
((#834,#835,#836)) REPRESENTATION_CONTEXT('Context #1',
  '3D Context with UNIT and UNCERTAINTY') );
#834 = ( LENGTH_UNIT() NAMED_UNIT(*) SI_UNIT(.MILLI.,.METRE.) );
#835 = ( NAMED_UNIT(*) PLANE_ANGLE_UNIT() SI_UNIT($,.RADIAN.) );
#836 = ( NAMED_UNIT(*) SI_UNIT($,.STERADIAN.) SOLID_ANGLE_UNIT() );
#837 = UNCERTAINTY_MEASURE_WITH_UNIT(LENGTH_MEASURE(5.E-06),#834,
  'distance_accuracy_value','confusion accuracy');
#838 = PRODUCT_RELATED_PRODUCT_CATEGORY('part',$,(#7));
#839 = MECHANICAL_DESIGN_GEOMETRIC_PRESENTATION_REPRESENTATION('',(#840)
  ,#833);
#840 = STYLED_ITEM('color',(#841),#15);
#841 = PRESENTATION_STYLE_ASSIGNMENT((#842,#848));
#842 = SURFACE_STYLE_USAGE(.BOTH.,#843);
#843 = SURFACE_SIDE_STYLE('',(#844));
#844 = SURFACE_STYLE_FILL_AREA(#845);
#845 = FILL_AREA_STYLE('',(#846));
#846 = FILL_AREA_STYLE_COLOUR('',#847);
#847 = COLOUR_RGB('',0.678431390124,0.709803936702,0.741176476869);
#848 = CURVE_STYLE('',#849,POSITIVE_LENGTH_MEASURE(0.1),#850);
#849 = DRAUGHTING_PRE_DEFINED_CURVE_FONT('continuous');
#850 = COLOUR_RGB('',9.803921802644E-02,9.803921802644E-02,
  9.803921802644E-02);
ENDSEC;
END-ISO-10303-21;
